<?xml version="1.0" encoding="UTF-8"?>
<svg xmlns="http://www.w3.org/2000/svg" version="1.1" viewBox="0 0 106.33 746.85">
  <defs>
    <style>
      .cls-1 {
        fill: #fff;
      }

      .cls-2 {
        fill: #57aed4;
      }
    </style>
  </defs>
  <!-- Generator: Adobe Illustrator 28.6.0, SVG Export Plug-In . SVG Version: 1.2.0 Build 709)  -->
  <g>
    <g id="_图层_1" data-name="图层_1">
      <g>
        <path class="cls-2" d="M91.83,652.68h-20.27c-1.68,0-3.04-1.36-3.04-3.04v-162.97c0-1.68-1.36-3.04-3.04-3.04h-24.64c-1.68,0-3.04,1.36-3.04,3.04v162.97c0,1.68-1.36,3.04-3.04,3.04H14.5c-2.19,0-3.66,2.25-2.78,4.26l38.67,88.09c1.06,2.42,4.5,2.42,5.56,0l38.67-88.09c.88-2.01-.59-4.26-2.78-4.26Z"/>
        <path class="cls-1" d="M100.42,325.38c-.34-3.7-3.44-6.53-7.15-6.53h-42.86c-2.04,0-3.99-.87-5.35-2.39-1.36-1.52-2.01-3.55-1.78-5.58l.2-1.8c.4-3.64,3.48-6.39,7.14-6.39h7.93c3.97,0,7.18,3.21,7.18,7.18v5.39h10.77l-2.51-13.85c-.62-3.41-3.59-5.89-7.06-5.89h-25.54c-3.54,0-6.56,2.59-7.1,6.09l-1.71,11.16c-.54,3.5-3.55,6.09-7.1,6.09h-12.41c-3.71,0-6.81,2.83-7.15,6.53L.03,413.12c-.18,2.01.49,4,1.85,5.49,1.36,1.49,3.28,2.34,5.3,2.34h91.97c2.02,0,3.94-.85,5.3-2.34,1.36-1.49,2.03-3.48,1.85-5.49l-5.88-87.73Z"/>
      </g>
    </g>
  </g>
</svg>